<svg width="29" height="29" viewBox="0 0 29 29" fill="none" xmlns="http://www.w3.org/2000/svg">
<path d="M14.0391 28C21.7711 28 28.0391 21.732 28.0391 14C28.0391 6.26801 21.7711 0 14.0391 0C6.30714 0 0.0391235 6.26801 0.0391235 14C0.0391235 21.732 6.30714 28 14.0391 28Z" fill="#235390"/>
<path d="M6.87505 18.1328L7.57484 20.4276C7.59015 20.4873 6.37505 21.1328 6.37505 21.1328L14.6851 27.9853C15.0369 28.0118 13.6806 28 14.0391 28C21.7711 28 28.0391 21.732 28.0391 14C28.0391 13.6414 27.9714 15.9846 27.9449 15.6328L18.375 6.63281L21.375 17.6328L6.87505 18.1328Z" fill="#235390"/>
<path d="M15.1974 21.442H7.07267C6.68739 21.442 6.37506 21.1395 6.37506 20.7663V16.925C6.37506 16.5518 6.68739 16.2493 7.07267 16.2493H15.1975C15.5827 16.2493 15.8951 16.5518 15.8951 16.925V20.7663C15.895 21.1395 15.5827 21.442 15.1974 21.442Z" fill="#FAD87C"/>
<path d="M15.895 16.9251V20.7662C15.895 21.1393 15.5828 21.4417 15.1976 21.4417H13.7032C14.0885 21.4417 14.4009 21.1394 14.4009 20.7662V18.2261C14.4009 17.6338 13.9052 17.1537 13.2937 17.1537H6.37506V16.9248C6.37506 16.5517 6.68728 16.2493 7.07244 16.2493H15.1973C15.5826 16.2493 15.895 16.5519 15.895 16.9251Z" fill="#FEBE40"/>
<path d="M15.1974 16.2491H7.07267C6.68739 16.2491 6.37506 15.9466 6.37506 15.5734V11.7321C6.37506 11.3589 6.68739 11.0564 7.07267 11.0564H15.1975C15.5827 11.0564 15.8951 11.3589 15.8951 11.7321V15.5734C15.895 15.9466 15.5827 16.2491 15.1974 16.2491Z" fill="#FF127F"/>
<path d="M15.895 11.7325V15.5735C15.895 15.9466 15.5828 16.249 15.1976 16.249H13.7032C14.0885 16.249 14.4009 15.9467 14.4009 15.5735V13.0335C14.4009 12.4412 13.9052 11.961 13.2937 11.961H6.37506V11.7321C6.37506 11.3591 6.68728 11.0566 7.07244 11.0566H15.1973C15.5826 11.0566 15.895 11.3592 15.895 11.7325Z" fill="#B10853"/>
<path d="M10.72 5.86372H8.10594V4.80441C8.10594 4.43348 8.40664 4.13281 8.77753 4.13281H10.0484C10.4193 4.13281 10.72 4.43351 10.72 4.80441V5.86372Z" fill="url(#paint0_linear_2_3187)"/>
<path d="M9.92319 4.13281H9.00209C9.37302 4.13281 9.67368 4.43351 9.67368 4.80441V5.86372H10.5948V4.80441C10.5948 4.43351 10.2941 4.13281 9.92319 4.13281Z" fill="url(#paint1_linear_2_3187)"/>
<path d="M14.1939 5.86372H11.5799V4.80441C11.5799 4.43348 11.8806 4.13281 12.2515 4.13281H13.5223C13.8933 4.13281 14.1939 4.43351 14.1939 4.80441V5.86372Z" fill="url(#paint2_linear_2_3187)"/>
<path d="M13.3972 4.13281H12.4761C12.847 4.13281 13.1476 4.43351 13.1476 4.80441V5.86372H14.0687V4.80441C14.0687 4.43351 13.768 4.13281 13.3972 4.13281Z" fill="url(#paint3_linear_2_3187)"/>
<path d="M14.9205 11.0565H7.05077C6.67759 11.0565 6.37506 10.754 6.37506 10.3808V6.53948C6.37506 6.1663 6.67759 5.86377 7.05077 5.86377H14.9205C15.2937 5.86377 15.5962 6.1663 15.5962 6.53948V10.3808C15.5962 10.754 15.2937 11.0565 14.9205 11.0565Z" fill="#00C2F3"/>
<path d="M15.0686 5.86377H13.2987C13.7551 5.86377 14.1251 6.1663 14.1251 6.53948V10.3808C14.1251 10.754 13.7551 11.0565 13.2987 11.0565H15.0686C15.525 11.0565 15.895 10.754 15.895 10.3808V6.53945C15.895 6.1663 15.525 5.86377 15.0686 5.86377Z" fill="#1E90FF"/>
<path d="M20.24 16.2492H17.6259V15.1899C17.6259 14.819 17.9266 14.5183 18.2975 14.5183H19.5684C19.9393 14.5183 20.24 14.819 20.24 15.1899V16.2492Z" fill="url(#paint4_linear_2_3187)"/>
<path d="M19.4432 14.5183H18.5221C18.893 14.5183 19.1937 14.819 19.1937 15.1899V16.2492H20.1148V15.1899C20.1148 14.819 19.8141 14.5183 19.4432 14.5183Z" fill="url(#paint5_linear_2_3187)"/>
<path d="M23.7139 16.2492H21.0999V15.1899C21.0999 14.819 21.4006 14.5183 21.7715 14.5183H23.0423C23.4133 14.5183 23.7139 14.819 23.7139 15.1899V16.2492Z" fill="url(#paint6_linear_2_3187)"/>
<path d="M22.9171 14.5183H21.996C22.367 14.5183 22.6676 14.819 22.6676 15.1899V16.2492H23.5887V15.1899C23.5887 14.819 23.288 14.5183 22.9171 14.5183Z" fill="url(#paint7_linear_2_3187)"/>
<path d="M24.4405 21.442H16.5708C16.1976 21.442 15.8951 21.1395 15.8951 20.7663V16.925C15.8951 16.5518 16.1976 16.2493 16.5708 16.2493H24.4405C24.8137 16.2493 25.1162 16.5518 25.1162 16.925V20.7663C25.1162 21.1395 24.8137 21.442 24.4405 21.442Z" fill="#00C2F3"/>
<path d="M24.5886 16.2493H22.8186C23.2751 16.2493 23.6451 16.5518 23.6451 16.925V20.7663C23.6451 21.1395 23.2751 21.442 22.8186 21.442H24.5886C25.045 21.442 25.415 21.1395 25.415 20.7663V16.9249C25.415 16.5518 25.045 16.2493 24.5886 16.2493Z" fill="#1E90FF"/>
<path d="M19.7298 9.23407L18.1876 7.69189L18.8125 7.06695C19.0314 6.84813 19.3861 6.84813 19.605 7.06695L20.3547 7.81668C20.5735 8.03551 20.5735 8.39028 20.3547 8.6091L19.7298 9.23407Z" fill="#FAD87C"/>
<path d="M20.3548 7.81661L19.8114 7.27319C20.0302 7.49202 20.0302 7.84679 19.8114 8.06561L19.1864 8.69055L19.7299 9.23396L20.3548 8.60902C20.5736 8.3902 20.5736 8.03543 20.3548 7.81661Z" fill="#FEBE40"/>
<path d="M22.0656 11.57L20.5235 10.0278L21.1484 9.40289C21.3672 9.18406 21.722 9.18406 21.9408 9.40289L22.6905 10.1526C22.9094 10.3714 22.9094 10.7262 22.6905 10.945L22.0656 11.57Z" fill="#FAD87C"/>
<path d="M22.6907 10.1525L22.1473 9.60913C22.3661 9.82796 22.3661 10.1827 22.1473 10.4016L21.5224 11.0265L22.0658 11.5699L22.6907 10.945C22.9095 10.7261 22.9095 10.3714 22.6907 10.1525Z" fill="#FEBE40"/>
<path d="M19.5102 14.9758L14.7818 10.2473C14.5576 10.0231 14.5576 9.6596 14.7818 9.43537L17.0898 7.1274C17.314 6.90317 17.6775 6.90317 17.9017 7.1274L22.6301 11.8558C22.8543 12.08 22.8543 12.4436 22.6301 12.6678L20.3221 14.9758C20.0979 15.2 19.7344 15.2 19.5102 14.9758Z" fill="#FAD87C"/>
<path d="M22.6301 11.8558L21.7606 10.9863C21.9848 11.2105 21.9848 11.5741 21.7606 11.7983L19.4526 14.1063C19.2284 14.3305 18.8649 14.3305 18.6407 14.1063L19.5102 14.9758C19.7344 15.2 20.0979 15.2 20.3222 14.9758L22.6301 12.6678C22.8544 12.4436 22.8544 12.0801 22.6301 11.8558Z" fill="#FEBE40"/>
<defs>
<linearGradient id="paint0_linear_2_3187" x1="7.54413" y1="4.99827" x2="11.2387" y2="4.99827" gradientUnits="userSpaceOnUse">
<stop stop-color="#99E6FC"/>
<stop offset="0.5042" stop-color="#01D0FB"/>
<stop offset="0.5857" stop-color="#08C7F7"/>
<stop offset="0.7226" stop-color="#1BACEC"/>
<stop offset="0.8971" stop-color="#3A82DC"/>
<stop offset="1" stop-color="#4F66D0"/>
</linearGradient>
<linearGradient id="paint1_linear_2_3187" x1="6.24044" y1="4.99827" x2="11.249" y2="4.99827" gradientUnits="userSpaceOnUse">
<stop stop-color="#99E6FC"/>
<stop offset="0.5042" stop-color="#01D0FB"/>
<stop offset="0.5857" stop-color="#08C7F7"/>
<stop offset="0.7226" stop-color="#1BACEC"/>
<stop offset="0.8971" stop-color="#3A82DC"/>
<stop offset="1" stop-color="#4F66D0"/>
</linearGradient>
<linearGradient id="paint2_linear_2_3187" x1="11.2203" y1="4.99827" x2="14.5879" y2="4.99827" gradientUnits="userSpaceOnUse">
<stop stop-color="#99E6FC"/>
<stop offset="0.5042" stop-color="#01D0FB"/>
<stop offset="0.5857" stop-color="#08C7F7"/>
<stop offset="0.7226" stop-color="#1BACEC"/>
<stop offset="0.8971" stop-color="#3A82DC"/>
<stop offset="1" stop-color="#4F66D0"/>
</linearGradient>
<linearGradient id="paint3_linear_2_3187" x1="9.71442" y1="4.99827" x2="14.723" y2="4.99827" gradientUnits="userSpaceOnUse">
<stop stop-color="#99E6FC"/>
<stop offset="0.5042" stop-color="#01D0FB"/>
<stop offset="0.5857" stop-color="#08C7F7"/>
<stop offset="0.7226" stop-color="#1BACEC"/>
<stop offset="0.8971" stop-color="#3A82DC"/>
<stop offset="1" stop-color="#4F66D0"/>
</linearGradient>
<linearGradient id="paint4_linear_2_3187" x1="17.0641" y1="15.3838" x2="20.7587" y2="15.3838" gradientUnits="userSpaceOnUse">
<stop stop-color="#99E6FC"/>
<stop offset="0.5042" stop-color="#01D0FB"/>
<stop offset="0.5857" stop-color="#08C7F7"/>
<stop offset="0.7226" stop-color="#1BACEC"/>
<stop offset="0.8971" stop-color="#3A82DC"/>
<stop offset="1" stop-color="#4F66D0"/>
</linearGradient>
<linearGradient id="paint5_linear_2_3187" x1="15.7604" y1="15.3838" x2="20.769" y2="15.3838" gradientUnits="userSpaceOnUse">
<stop stop-color="#99E6FC"/>
<stop offset="0.5042" stop-color="#01D0FB"/>
<stop offset="0.5857" stop-color="#08C7F7"/>
<stop offset="0.7226" stop-color="#1BACEC"/>
<stop offset="0.8971" stop-color="#3A82DC"/>
<stop offset="1" stop-color="#4F66D0"/>
</linearGradient>
<linearGradient id="paint6_linear_2_3187" x1="20.7403" y1="15.3838" x2="24.1079" y2="15.3838" gradientUnits="userSpaceOnUse">
<stop stop-color="#99E6FC"/>
<stop offset="0.5042" stop-color="#01D0FB"/>
<stop offset="0.5857" stop-color="#08C7F7"/>
<stop offset="0.7226" stop-color="#1BACEC"/>
<stop offset="0.8971" stop-color="#3A82DC"/>
<stop offset="1" stop-color="#4F66D0"/>
</linearGradient>
<linearGradient id="paint7_linear_2_3187" x1="19.2344" y1="15.3838" x2="24.243" y2="15.3838" gradientUnits="userSpaceOnUse">
<stop stop-color="#99E6FC"/>
<stop offset="0.5042" stop-color="#01D0FB"/>
<stop offset="0.5857" stop-color="#08C7F7"/>
<stop offset="0.7226" stop-color="#1BACEC"/>
<stop offset="0.8971" stop-color="#3A82DC"/>
<stop offset="1" stop-color="#4F66D0"/>
</linearGradient>
</defs>
</svg>
