<svg width="29" height="29" viewBox="0 0 29 29" fill="none" xmlns="http://www.w3.org/2000/svg">
<g clip-path="url(#clip0_2_3132)">
<path d="M14.0625 28.9689C21.8289 28.9689 28.1249 22.6729 28.1249 14.9064C28.1249 7.13997 21.8289 0.843994 14.0625 0.843994C6.29597 0.843994 0 7.13997 0 14.9064C0 22.6729 6.29597 28.9689 14.0625 28.9689Z" fill="#235390"/>
<path d="M28.1248 14.9065C28.1248 13.5582 27.9347 12.2543 27.5804 11.0199L21.8947 5.33423L6.50574 24.7544L10.1758 28.4245C11.4102 28.7788 12.7141 28.9689 14.0624 28.9689C21.8289 28.9689 28.1248 22.673 28.1248 14.9065Z" fill="#235390"/>
<path d="M20.8981 25.25H7.43027C6.66511 25.25 6.03906 24.6076 6.03906 23.8226V6.42771C6.03906 5.6426 6.66511 5.0003 7.43027 5.0003H10.7291L14.1642 6.33252L17.5992 5.00024H20.8981C21.6632 5.00024 22.2893 5.6426 22.2893 6.42765V23.8225C22.2892 24.6077 21.6632 25.25 20.8981 25.25Z" fill="#00C2F3"/>
<path d="M22.2895 6.42752V23.8225C22.2895 24.6074 21.6633 25.25 20.8982 25.25H14.1643V6.3325L17.5994 5H20.8982C21.6633 5 22.2895 5.64263 22.2895 6.42752Z" fill="#00C2F3"/>
<path d="M7.82355 7.10645H20.5047V22.7984H7.82355V7.10645Z" fill="white"/>
<path d="M14.1643 7.10645H20.5049V22.7982H14.1643V7.10645Z" fill="#F1F4F6"/>
<path d="M16.0454 9.18279H12.2829C11.4261 9.18279 10.7291 8.48578 10.7291 7.62899V5.00024H17.5992V7.62899C17.5992 8.48578 16.9022 9.18279 16.0454 9.18279Z" fill="#FAD87C"/>
<path d="M17.5994 5V7.62874C17.5994 8.48558 16.9024 9.18259 16.0455 9.18259H14.1643V5H17.5994Z" fill="#FEBE40"/>
<path d="M9.70465 11.0471H12.1756V12.6949H9.70465V11.0471Z" fill="#FF127F"/>
<path d="M14.1643 11.0471H18.5784V12.6949H14.1643V11.0471Z" fill="#FF127F"/>
<path d="M16.1072 14.6348H18.5782V16.2825H16.1072V14.6348Z" fill="#FF127F"/>
<path d="M9.70465 14.6348H14.164V16.2825H9.70465V14.6348Z" fill="#FF127F"/>
<path d="M9.70465 18.2227H12.1756V19.8704H9.70465V18.2227Z" fill="#FF127F"/>
<path d="M14.1643 18.2227H18.5784V19.8704H14.1643V18.2227Z" fill="#FF127F"/>
</g>
<defs>
<clipPath id="clip0_2_3132">
<rect width="28.1249" height="28.1249" fill="white" transform="translate(0 0.843994)"/>
</clipPath>
</defs>
</svg>
