<svg width="29" height="29" viewBox="0 0 29 29" fill="none" xmlns="http://www.w3.org/2000/svg">
<g clip-path="url(#clip0_2_6116)">
<path d="M14.0626 28.1874C21.8291 28.1874 28.125 21.8914 28.125 14.125C28.125 6.35847 21.8291 0.0625 14.0626 0.0625C6.2961 0.0625 0.00012207 6.35847 0.00012207 14.125C0.00012207 21.8914 6.2961 28.1874 14.0626 28.1874Z" fill="#235390"/>
<path d="M16.7942 11.3269C20.023 11.2776 22.6583 13.8188 22.7208 17.0473C22.73 17.5213 22.6826 17.9827 22.585 18.4252C22.4197 19.1746 22.3214 19.9371 22.3214 20.7045V22.1877C22.3214 22.415 22.1372 22.5992 21.91 22.5992H20.4267C19.6593 22.5992 18.8968 22.6975 18.1474 22.8628C17.7049 22.9604 17.2435 23.0077 16.7695 22.9986C13.5411 22.9361 10.9998 20.3009 11.0491 17.0722C11.0971 13.9207 13.6428 11.375 16.7942 11.3269Z" fill="#FAD87C"/>
<path d="M16.7942 11.3269C20.023 11.2776 22.6583 13.8188 22.7208 17.0473C22.73 17.5213 22.6826 17.9827 22.585 18.4252C22.4197 19.1746 22.3214 19.9371 22.3214 20.7045V22.1877C22.3214 22.415 22.1372 22.5992 21.91 22.5992H20.4267C19.6593 22.5992 18.8968 22.6975 18.1474 22.8628C17.7049 22.9604 17.2435 23.0077 16.7695 22.9986C13.5411 22.9361 10.9998 20.3009 11.0491 17.0722C11.0971 13.9207 13.6428 11.375 16.7942 11.3269Z" fill="#FAD87C"/>
<path d="M12.2606 6.00062C8.32714 5.94052 5.11667 9.0364 5.04048 12.9696C5.02933 13.547 5.08704 14.1092 5.20598 14.6483C5.40733 15.5612 5.52703 16.4902 5.52703 17.425V19.232C5.52703 19.5089 5.75145 19.7333 6.02833 19.7333H7.83534C8.77018 19.7333 9.69917 19.853 10.6121 20.0544C11.1512 20.1733 11.7133 20.231 12.2907 20.2199C16.2239 20.1437 19.3197 16.9333 19.2598 12.9999C19.2012 9.1606 16.0999 6.05922 12.2606 6.00062Z" fill="#00C2F3"/>
<path d="M9.60461 12.7293C9.40374 12.5159 9.11944 12.3818 8.80315 12.3818C8.19486 12.3818 7.70175 12.8749 7.70175 13.4832C7.70175 13.7995 7.83575 14.0838 8.04922 14.2847L10.4251 16.6606C10.626 16.874 10.9103 17.0081 11.2266 17.0081C11.8349 17.0081 12.328 16.515 12.328 15.9067C12.328 15.5904 12.1939 15.3061 11.9805 15.1052L9.60461 12.7293Z" fill="url(#paint0_linear_2_6116)"/>
<path d="M8.80315 14.5846C9.41144 14.5846 9.90455 14.0915 9.90455 13.4832C9.90455 12.875 9.41144 12.3818 8.80315 12.3818C8.19487 12.3818 7.70175 12.875 7.70175 13.4832C7.70175 14.0915 8.19487 14.5846 8.80315 14.5846Z" fill="white"/>
<path d="M12.7194 12.7293C12.5186 12.5159 12.2343 12.3818 11.918 12.3818C11.3097 12.3818 10.8166 12.8749 10.8166 13.4832C10.8166 13.7995 10.9506 14.0838 11.164 14.2847L13.5399 16.6606C13.7408 16.874 14.0251 17.0081 14.3414 17.0081C14.9497 17.0081 15.4428 16.515 15.4428 15.9067C15.4428 15.5904 15.3087 15.3061 15.0953 15.1052L12.7194 12.7293Z" fill="url(#paint1_linear_2_6116)"/>
<path d="M11.918 14.5846C12.5263 14.5846 13.0194 14.0915 13.0194 13.4832C13.0194 12.875 12.5263 12.3818 11.918 12.3818C11.3097 12.3818 10.8166 12.875 10.8166 13.4832C10.8166 14.0915 11.3097 14.5846 11.918 14.5846Z" fill="white"/>
<path d="M15.8343 12.7293C15.6334 12.5159 15.3491 12.3818 15.0328 12.3818C14.4246 12.3818 13.9314 12.8749 13.9314 13.4832C13.9314 13.7995 14.0655 14.0838 14.2789 14.2847L16.6548 16.6606C16.8557 16.874 17.14 17.0081 17.4563 17.0081C18.0646 17.0081 18.5577 16.515 18.5577 15.9067C18.5577 15.5904 18.4236 15.3061 18.2102 15.1052L15.8343 12.7293Z" fill="url(#paint2_linear_2_6116)"/>
<path d="M15.033 14.5846C15.6413 14.5846 16.1344 14.0915 16.1344 13.4832C16.1344 12.875 15.6413 12.3818 15.033 12.3818C14.4247 12.3818 13.9316 12.875 13.9316 13.4832C13.9316 14.0915 14.4247 14.5846 15.033 14.5846Z" fill="white"/>
</g>
<defs>
<linearGradient id="paint0_linear_2_6116" x1="11.2532" y1="15.9335" x2="6.48963" y2="11.1701" gradientUnits="userSpaceOnUse">
<stop stop-color="#00A2F3" stop-opacity="0"/>
<stop offset="1" stop-color="#0075CD"/>
</linearGradient>
<linearGradient id="paint1_linear_2_6116" x1="14.3678" y1="15.9334" x2="9.60436" y2="11.17" gradientUnits="userSpaceOnUse">
<stop stop-color="#00A2F3" stop-opacity="0"/>
<stop offset="1" stop-color="#0075CD"/>
</linearGradient>
<linearGradient id="paint2_linear_2_6116" x1="17.4827" y1="15.9335" x2="12.7192" y2="11.17" gradientUnits="userSpaceOnUse">
<stop stop-color="#00A2F3" stop-opacity="0"/>
<stop offset="1" stop-color="#0075CD"/>
</linearGradient>
<clipPath id="clip0_2_6116">
<rect width="28.1249" height="28.1249" fill="white" transform="translate(0.00012207 0.0625)"/>
</clipPath>
</defs>
</svg>
